# xmcd
#
# Track frame offsets:
#	150
#	13153
#	29868
#	46717
#	67797
#	86950
#	103722
#	119339
#	137673
#	154966
#	174395
#
# Disc length: 2629 seconds
#
# Revision: 1
# Processed by: cddbd v1.5.2PL0 Copyright (c) Steve Scherf et al.
# Submitted via: audiograbber 1.83.01
#
DISCID=920a430b
DTITLE=Jessica Simpson - Do You Know
DYEAR=2008
DGENRE=Pop
TTITLE0=Come On Over
TTITLE1=Remember That
TTITLE2=Pray Out Loud
TTITLE3=You're My Sunday
TTITLE4=Sipping On History
TTITLE5=Still Beautiful
TTITLE6=Still Don't Stop Me
TTITLE7=When I Loved You Like That
TTITLE8=Might As Well Be Making Love
TTITLE9=Man Enough
TTITLE10=Do You Know (With Dolly Parton)
EXTD=
EXTT0=
EXTT1=
EXTT2=
EXTT3=
EXTT4=
EXTT5=
EXTT6=
EXTT7=
EXTT8=
EXTT9=
EXTT10=
PLAYORDER=
